<?xml version="1.0" encoding="utf-8"?>
<!-- Generator: Adobe Illustrator 22.0.1, SVG Export Plug-In . SVG Version: 6.00 Build 0)  -->
<svg version="1.1" id="Capa_1" xmlns="http://www.w3.org/2000/svg" xmlns:xlink="http://www.w3.org/1999/xlink" x="0px" y="0px"
	 viewBox="0 0 736 97" style="enable-background:new 0 0 736 97;" xml:space="preserve">
<style type="text/css">
	.st0{fill:#FFFFFF;}
</style>
<g id="NpdqKk.tif">
	<g>
		<path class="st0" d="M731.4,84.6c-0.5,0-0.9,0.1-1.4,0.1c-16.8,0-33.6,0-50.3,0c-0.5,0-0.9,0-1.6,0c0-2.2,0-4.2,0-6.5
			c-1.4,1.4-2.5,2.6-3.7,3.6c-5.7,4.7-12.1,5.5-19,3.3c-4.6-1.5-7.1-5.1-8.2-9.6c-1-3.7-1.1-7.4-0.4-11.2
			c1.3-6.9,5.8-10.8,12.3-12.4c3.4-0.8,6.9-1,10.4-1.2c2.7-0.2,5.5,0,8.2,0c2-6.2-1.4-13.8-6.9-15.4c-2.8-0.8-5.6-0.8-8.3-0.1
			c-3.9,1-5.8,3.9-6.7,7.5c-0.3,1.2-0.9,1.6-2.1,1.5c-1.1-0.1-2.2,0-3.4,0c-0.1-0.4-0.2-0.8-0.2-1.1c0-3.1,0-6.2,0-9.4
			c0-0.8,0.2-1.3,1-1.7c9.5-3.3,19.1-4.2,28.9-1.8c8.4,2.1,13.1,7.8,13.9,16.4c0.2,1.6,0.2,3.3,0.2,4.9c0,8.2,0,16.4,0,24.6
			c0,0.6,0,1.3,0,2c4.7,0,9.2,0,13.9,0c0-22.2,0-44.4,0-66.7c-2.3,0-4.4,0-6.7,0c0-2.1,0-4,0-6.1c7.7,0,15.3,0,23,0
			c0,24.2,0,48.4,0,73.1c2.5,0,4.8,0,7.1,0C731.4,80.6,731.4,82.6,731.4,84.6z M677.7,62.9c0.1,0,0.1,0,0.2,0c0-1.6,0-3.3,0-4.9
			c0-0.9-0.3-1.2-1.2-1.2c-1.5,0.1-3.1,0-4.6,0c-4,0.1-7.4,1.4-8.9,5.5c-1.3,3.8-1.2,7.6,0.2,11.3c0.9,2.6,3,3.9,5.7,4
			c4.6,0.2,8.1-3.1,8.5-8C677.9,67.4,677.7,65.1,677.7,62.9z"/>
		<path class="st0" d="M280.3,78.5c1.7,0,3.3,0,4.8,0c0.4,0,1.1,0.4,1.1,0.7c0.1,1.8,0.1,3.6,0.1,5.4c-9.8,0-19.3,0-29,0
			c0-2,0-3.9,0-6.1c2.2,0,4.4,0,6.7,0c0-14,0-27.8,0-41.7c-2.2,0-4.4,0-6.7,0c0-2.2,0-4.1,0-6.2c7.7,0,15.3,0,23.1,0
			c0,2.3,0,4.5,0,6.7c0.1,0.1,0.2,0.1,0.3,0.2c0.4-0.5,0.8-1,1.1-1.5c5.7-7.7,18.1-9.4,25.2-3.5c3.6,3,5,7.2,5.7,11.7
			c0.3,1.9,0.4,3.9,0.4,5.8c0,8.8,0,17.7,0,26.5c0,0.6,0,1.2,0,1.9c4.7,0,9.3,0,13.9,0c0-13.9,0-27.7,0-41.6c-2.4,0-4.6,0-7,0
			c0-2.1,0-4.1,0-6.3c2.3,0,4.6,0,7.1,0c0-2.8-0.1-5.4,0-7.9c0.1-3.9,1-7.7,3.5-10.8c3.1-3.9,7.3-5.5,12-6.1
			c6.3-0.7,12.6-0.2,18.7,1.4c0.5,0.1,0.9,0.8,1.5,1.4c-0.1,0.1,0.1,0,0.3-0.3c2.5-2.8,5.7-3.5,9.1-2.3c3.5,1.2,5.3,4.1,5.8,7.7
			c0.4,3-0.1,5.8-2.2,8.2c-4,4.6-10.6,4.2-13.7-1c-0.9-1.5-1.8-2-3.4-1.8c-0.5,0.1-0.9,0-1.6,0c-0.2-0.8-0.3-1.5-0.5-2.2
			c-0.7-3.4-2.6-5.3-5.6-5.6c-3.4-0.4-6,1.2-6.9,4.5c-0.5,1.7-0.8,3.5-0.9,5.3c-0.1,3.1,0,6.1,0,9.5c11.6,0,23.2,0,35,0
			c0,16.1,0,32,0,48c2.4,0,4.6,0,6.9,0c0,2.2,0,4.1,0,6.2c-10,0-19.9,0-29.9,0c0-2,0-4,0-6.1c2.2,0,4.4,0,6.6,0c0-14,0-27.8,0-41.7
			c-6.2,0-12.3,0-18.5,0c0,13.9,0,27.6,0,41.6c3,0,6,0,9.1,0c0,2.2,0,4.1,0,6.2c-20.6,0-41.1,0-61.7,0c0-2,0-3.9,0-6.1
			c1.9,0,3.7,0,5.8,0c0-0.8,0.1-1.3,0.1-1.9c0-9.4,0-18.7,0-28.1c0-1.7-0.2-3.4-0.5-5c-0.5-2.8-1.6-5.2-4.7-5.7
			c-3.3-0.6-6.2,0-8.4,2.9c-1.8,2.4-2.5,5.2-2.6,8.1c-0.2,8.9-0.2,17.8-0.3,26.7C280.3,76.3,280.3,77.2,280.3,78.5z"/>
		<path class="st0" d="M438.9,5.6c0,24.3,0,48.5,0,72.9c2.4,0,4.6,0,6.9,0c0,2.1,0,4,0,6.1c-7.6,0-15.2,0-23.1,0c0-1.9,0-3.9,0-5.9
			c-0.3,0.1-0.4,0-0.5,0.1c-3.4,5.9-8.8,7.7-15.2,7.4c-8.9-0.5-15-5.2-18-13.3c-4-10.6-4.1-21.5,0.6-32c4.9-11,15.6-13.3,24-11.2
			c3.5,0.8,6.1,2.9,8,5.8c0.2,0.3,0.4,0.7,0.9,1.3c0-8.6,0-16.8,0-25.1c-2.2,0-4.4,0-6.7,0c0-2.1,0-4,0-6.1
			C423.3,5.6,431,5.6,438.9,5.6z M422.8,57.7c-0.1,0-0.2,0-0.2,0c0-1.7,0.2-3.5,0-5.2c-0.4-3.4-0.7-6.9-1.7-10.1
			c-1.3-4.3-5.2-6.1-9.6-5c-3.6,0.9-5,3.7-5.7,6.9c-1.3,5.9-1.3,11.9-1,17.8c0.2,3.6,0.7,7.2,1.6,10.6c0.9,3.6,3.7,5.4,7.3,5.5
			c3.5,0,6.2-1.8,7.5-5.3c0.5-1.3,0.9-2.6,1.1-4C422.3,65.2,422.5,61.4,422.8,57.7z"/>
		<path class="st0" d="M68.8,8.7c0,6,0,11.8,0,17.8c-2.1,0-4.1,0-6.2,0c0-3.6,0-7.1,0-10.8c-9.6,0-19,0-28.6,0c0,8,0,15.9,0,24
			c5.8,0,11.7,0,17.7,0c0-3.1,0-6.2,0-9.4c2.2,0,4.2,0,6.3,0c0,8.7,0,17.4,0,26.2c-2,0-4,0-6.1,0c0-3,0-6.1,0-9.4
			c-6,0-11.9,0-17.8,0c0,10.1,0,20.2,0,30.4c9.8,0,19.4,0,29.3,0c0-3.5,0-7,0-10.7c2.2,0,4.2,0,6.3,0c0,5.9,0,11.8,0,17.7
			c-20.7,0-41.3,0-62.1,0c0-2,0-3.9,0-6.1c2.8,0,5.6,0,8.5,0c0-21.3,0-42.4,0-63.7c-2.8,0-5.5,0-8.4,0c0-2.1,0-4,0-6.1
			C27.9,8.7,48.3,8.7,68.8,8.7z"/>
		<path class="st0" d="M507.1,36.7c-2.2,0-4.4,0-6.6,0c0-2.1,0-4,0-6.1c7.6,0,15.3,0,23.1,0c0,2.2,0,4.5,0,6.9
			c1.4-1.6,2.5-3.1,3.8-4.3c8.4-8,23.5-4.8,27.2,6c1.1,3.3,1.6,6.9,1.6,10.4c0.2,8.9,0.1,17.9,0.1,26.8c0,0.6,0,1.2,0,2
			c1.4,0,2.7,0,4,0c3,0,3,0,3,3c0,1,0,2,0,3.1c-9.8,0-19.4,0-29.1,0c0-1.9,0-3.9,0-6.1c1.9,0,3.7,0,5.8,0c0-0.8,0-1.3,0-1.9
			c0-9,0-18,0-27c0-2-0.2-4-0.5-6c-0.4-2.8-1.5-5.2-4.7-5.9c-3.4-0.8-6.8,0.5-8.6,3.3c-1.7,2.7-2.4,5.7-2.4,8.8
			c-0.1,9.5-0.1,18.9-0.1,28.6c1.8,0,3.6,0,5.6,0c0,2.2,0,4.1,0,6.2c-9.6,0-19.1,0-28.8,0c0-2,0-3.9,0-6.1c2.2,0,4.3,0,6.6,0
			C507.1,64.5,507.1,50.7,507.1,36.7z"/>
		<path class="st0" d="M196.8,62.9c-0.7,9.8-8.6,19.5-18.5,22c-10.2,2.6-20.2,1.7-29.6-3.4c-8.5-4.6-13.7-12-16.1-21.3
			c-2.5-9.6-2.5-19.2,0.5-28.6c4.3-13.6,13.7-21.5,27.8-23.8c9.5-1.6,18.7,0,27.7,3.3c1.9,0.7,3.7,1.5,5.6,2.3
			c0.4,0.2,0.9,0.8,0.9,1.2c0.1,5.8,0,11.5,0,17.3c0,0.1-0.1,0.3-0.2,0.6c-1.6,0-3.3,0.1-5-0.1c-0.3,0-0.7-0.7-0.9-1.2
			c-0.9-2.7-1.6-5.5-2.8-8.1c-5.8-12.7-22.4-11.8-28.5-4.7c-3.1,3.6-4.8,7.8-5.6,12.4c-2.2,11.9-2.3,23.9,1.1,35.6
			c1,3.3,2.7,6.3,5.1,8.8c5.6,5.9,20.8,7.4,26.4-4.2c1.1-2.2,1.9-4.6,2.6-6.9c0.3-1,0.6-1.5,1.8-1.5C191.8,63,194.3,62.9,196.8,62.9
			z"/>
		<path class="st0" d="M227.1,29c8.9,0.1,16.2,2.1,21.7,8.4c3.1,3.5,5,7.7,5.8,12.3c1.1,6.2,1.1,12.4-0.7,18.5
			c-3,10.2-11.6,17-22.2,17.8c-4,0.3-7.9,0.2-11.8-0.7c-8.9-2.1-14.9-7.5-17.8-16.2c-2.5-7.4-2.5-15-0.2-22.5
			c3.1-10.1,10.1-15.7,20.5-17.3C224.2,29.1,226.1,29.1,227.1,29z M235.1,39.8c-0.9-3.1-3.3-4.8-6.7-4.9c-3.5-0.2-6.1,1.3-7.5,4.5
			c-0.7,1.7-1.2,3.5-1.5,5.3c-1.1,7.8-1.1,15.6-0.3,23.4c0.3,2.8,1.1,5.7,2.2,8.4c1,2.6,3.4,3.7,6.3,3.9c3,0.1,5.5-0.9,6.9-3.6
			c0.9-1.8,1.6-3.8,1.9-5.8c0.6-4.4,0.8-8.8,1.1-13.3c-0.2,0-0.3,0-0.5,0"/>
		<path class="st0" d="M498.2,60.2c-11.2,0-22.2,0-33.4,0c0,5.5,0.1,10.9,3,15.7c2.3,3.8,7.2,5.3,12.3,4c5.2-1.3,7.8-5,8.9-9.9
			c0.3-1.5,0.9-2,2.4-1.9c1.8,0.1,3.7,0,5.7,0c-1.4,6.4-3.9,12-9.9,14.9c-9.5,4.5-19.2,4.5-28.6-0.2c-5.8-2.9-9.1-8.2-10.6-14.4
			c-1.9-7.7-2.1-15.5,0.5-23.1c3.3-9.8,10.5-15.1,20.7-16.1c3.3-0.3,6.7-0.1,9.9,0.5c6.3,1.1,11,4.6,14.3,10.1
			C497,46.1,497.9,52.9,498.2,60.2z M480.2,54c0-5,0.1-9.9-1.6-14.6c-1-2.9-3.1-4.4-5.9-4.5c-3-0.1-5.1,1.2-6.2,4.2
			c-1.8,4.8-1.8,9.8-1.7,14.9C469.9,54,474.9,54,480.2,54z"/>
		<path class="st0" d="M79.3,11.6c-2.2,0-4.4,0-6.7,0c0-2.1,0-4,0-6.1c7.7,0,15.3,0,23.1,0c0,24.3,0,48.5,0,72.9c2.3,0,4.5,0,6.8,0
			c0,2.1,0,4.1,0,6.1c-9.9,0-19.9,0-29.9,0c0-1.9,0-3.9,0-6.1c2.2,0,4.4,0,6.7,0C79.3,56.1,79.3,34,79.3,11.6z"/>
		<path class="st0" d="M611.2,48.4c-1.3,0-2.7,0.1-4,0c-0.4,0-0.9-0.6-1-1c-0.7-2.1-1-4.4-1.8-6.4c-2-4.6-5.8-6.3-10.6-6.1
			c-4.6,0.2-8.1,2.3-9.4,6.7c-1.1,3.4-1.7,7.1-2,10.7c-0.5,6.1-0.4,12.2,1,18.2c0.2,0.9,0.5,1.7,0.7,2.6c1.5,4.4,4.8,7.1,8.9,7.2
			c5.4,0.2,9.1-1.9,11-6.6c0.6-1.6,0.9-3.3,1.4-4.9c0.1-0.4,0.6-1,1-1c2.2-0.1,4.4,0,6.6,0c0,7.5-6.3,15.4-13.9,17.4
			c-6.9,1.8-13.8,1.4-20.4-1.3c-6.5-2.7-10.8-7.6-12.9-14.3c-2.6-8.2-2.7-16.6,0.3-24.8c3.5-9.7,10.9-14.6,21-15.6
			c8.1-0.8,15.8,0.9,23.3,3.7c0.5,0.2,1,0.8,1.1,1.3c0.1,4.6,0,9.1,0,13.7C611.4,48,611.3,48.1,611.2,48.4z"/>
		<path class="st0" d="M645.2,84.6c-10,0-19.9,0-29.9,0c0-2.1,0-4,0-6.2c2.2,0,4.4,0,6.7,0c0-13.9,0-27.7,0-41.7c-2.2,0-4.3,0-6.6,0
			c0-2.1,0-4.1,0-6.2c7.6,0,15.3,0,23.1,0c0,15.9,0,31.8,0,47.8c2.3,0,4.5,0,6.7,0C645.2,80.5,645.2,82.5,645.2,84.6z"/>
		<path class="st0" d="M629.4,5.4c5.1,0,9.3,4.8,8.8,10.3c-0.4,4.3-2.9,7.8-6.3,8.8c-4.6,1.4-9.2-1.2-10.8-6.1
			C619,12.1,623.2,5.4,629.4,5.4z"/>
	</g>
</g>
</svg>
