<?xml version="1.0" encoding="utf-8"?>
<!-- Generator: Adobe Illustrator 22.0.1, SVG Export Plug-In . SVG Version: 6.00 Build 0)  -->
<svg version="1.1" id="Capa_1" xmlns="http://www.w3.org/2000/svg" xmlns:xlink="http://www.w3.org/1999/xlink" x="0px" y="0px"
	 viewBox="0 0 626 96" style="enable-background:new 0 0 626 96;" xml:space="preserve">
<style type="text/css">
	.st0{stroke:#000000;stroke-width:2;stroke-miterlimit:10;}
	.st1{fill:#6B7ECC;stroke:#6B7ECC;stroke-width:2;stroke-miterlimit:10;}
</style>
<g>
	<g>
		<path class="st0" d="M396.7,18.1h-4.6v70.9H385l-41.5-68.5v62.9h10.2c2.4,0,3.7,1,3.7,2.7c0,1.9-1.4,2.9-3.7,2.9h-20.4
			c-2.4,0-3.7-1-3.7-2.9c0-1.8,1.2-2.7,3.7-2.7h4.6V18.1h-7.3c-2.4,0-3.7-1-3.7-2.9c0-1.8,1.2-2.7,3.7-2.7h14.4L386.5,81V18.1h-10.1
			c-2.6,0-3.8-1-3.8-2.9c0-1.8,1.2-2.7,3.8-2.7h20.3c2.4,0,3.7,1,3.7,2.7C400.4,17.2,399.2,18.1,396.7,18.1z"/>
		<path class="st0" d="M409.3,89.1c-2.4,0-3.7-1-3.7-2.9c0-1.8,1.2-2.7,3.7-2.7h7.3V18.1h-7.3c-2.4,0-3.7-1-3.7-2.9
			c0-1.8,1.2-2.7,3.7-2.7h58.3v18.9c0,2.4-1,3.7-2.9,3.7c-1.8,0-2.7-1.2-2.7-3.7V18.1h-39.8v28.4H442v-6.1c0-2.4,1-3.7,2.9-3.7
			c1.8,0,2.7,1.2,2.7,3.7v17.8c0,2.4-1,3.7-2.7,3.7c-1.9,0-2.9-1.2-2.9-3.7v-6.1h-19.7v31.4h42.7V67.3c0-2.4,1-3.7,2.9-3.7
			c1.8,0,2.7,1.2,2.7,3.7v21.7H409.3z"/>
		<path class="st0" d="M550.8,18.1h-2.7l-7.7,70.9h-8.7l-15.2-54.4l-15.6,54.4h-8.6l-7.5-70.9H482c-2.4,0-3.7-1-3.7-2.9
			c0-1.8,1.2-2.7,3.7-2.7h20.3c2.6,0,3.8,1,3.8,2.7c0,1.9-1.2,2.9-3.8,2.9h-12l6.9,64.7l15.2-53.3h8.4l14.8,53.3l7.1-64.7h-12.4
			c-2.4,0-3.7-1-3.7-2.9c0-1.8,1.2-2.7,3.7-2.7h20.4c2.4,0,3.7,1,3.7,2.7C554.5,17.2,553.3,18.1,550.8,18.1z"/>
		<path class="st0" d="M592.5,91.2c-9.4,0-17.4-3.4-23-9.8v3.9c0,2.4-1,3.7-2.9,3.7c-1.8,0-2.7-1.2-2.7-3.7V70.2
			c0-2.4,1-3.7,2.9-3.7c1.8,0,2.6,1.1,2.7,3.3c0.4,9,10.5,15.9,22.8,15.9c12.6,0,22.2-7.3,22.2-17.4c0-4.8-2.3-9-6.1-11.4
			c-3.4-2.2-6.1-3-15.8-4.6c-19.2-3.3-25.6-9.4-25.6-20.4c0-12,10.7-21.1,25-21.1c8,0,14.1,2.4,19.8,8v-2.6c0-2.4,1-3.7,2.9-3.7
			c1.8,0,2.7,1.2,2.7,3.7v14c0,2.4-1,3.7-2.7,3.7s-2.7-1.1-2.9-3.3c-0.5-8.2-8.8-14.3-19.4-14.3c-11.1,0-19.4,6.7-19.4,15.6
			c0,8.3,4.6,12.5,20.7,15.1c10.5,1.8,14.3,2.9,18.3,5.4c5.3,3.3,8.4,9.1,8.4,16C620.5,81.7,608.9,91.2,592.5,91.2z"/>
	</g>
	<g>
		<path class="st0" d="M57,84H44.4c-1.5,0-2.3-0.6-2.3-1.8c0-1.1,0.8-1.7,2.3-1.7h6.3V39.6H50l-13.3,30h-3.9l-13.5-30h-0.7v40.8h6.3
			c1.6,0,2.4,0.6,2.4,1.7c0,1.2-0.8,1.8-2.4,1.8H12.2c-1.5,0-2.3-0.6-2.3-1.8c0-1.1,0.8-1.7,2.3-1.7h2.9V39.6H13
			c-1.5,0-2.3-0.6-2.3-1.8c0-1.1,0.8-1.7,2.3-1.7h8.4l13.3,29.5l13.1-29.5h8.5c1.5,0,2.3,0.6,2.3,1.7c0,1.2-0.8,1.8-2.3,1.8h-2.1
			v40.8H57c1.5,0,2.3,0.6,2.3,1.7C59.3,83.4,58.6,84,57,84z"/>
		<path class="st0" d="M96,84h-8.1v-5.7c-5.2,4.8-10.3,7-16.2,7c-7.9,0-13.2-4.4-13.2-10.9c0-7.4,7.3-12.4,17.9-12.4
			c3.9,0,6.5,0.4,11.5,1.8v-6c0-4.2-4.2-7-10.4-7c-3.1,0-5.4,0.5-12.1,2.5c-0.3,0.1-0.8,0.2-0.8,0.2c-0.8,0-1.6-0.8-1.6-1.7
			c0-0.8,0.5-1.4,1.4-1.8c4.7-1.6,10.2-2.7,13.3-2.7c7.9,0,13.7,4.4,13.7,10.4v22.7H96c1.5,0,2.3,0.6,2.3,1.7
			C98.3,83.4,97.5,84,96,84z M87.9,66.8c-3.1-0.8-7.1-1.3-10.9-1.3c-9,0-15.1,3.6-15.1,9c0,4.4,3.8,7.3,9.7,7.3c6,0,10.6-2,16.3-7.4
			V66.8z"/>
		<path class="st0" d="M139.9,54.8c-0.6,0-0.8-0.1-1.4-0.7c-2-2-3.7-2.9-5.6-2.9c-3.8,0-6.8,2-16.1,10.5v18.8H132
			c1.4,0,2.3,0.7,2.3,1.8c0,1-0.8,1.7-2.3,1.7h-26.8c-1.4,0-2.3-0.7-2.3-1.8c0-1,0.8-1.7,2.3-1.7h8.1V52h-6.4
			c-1.4,0-2.3-0.7-2.3-1.8c0-1,0.8-1.7,2.3-1.7h9.8v8.7c7.9-7.1,12.1-9.5,16.4-9.5c2.5,0,4.3,0.8,6.5,2.6c1.4,1.2,2,1.9,2,2.6
			C141.7,54,140.9,54.8,139.9,54.8z"/>
		<path class="st0" d="M182.7,84h-11.1c-1.5,0-2.3-0.6-2.3-1.8c0-1.1,0.8-1.7,2.3-1.7h2.4l-15.3-15.1l-3.9,3.3V84h-8.1
			c-1.5,0-2.3-0.6-2.3-1.8c0-1.1,0.8-1.7,2.3-1.7h4.6V36.2h-4.6c-1.5,0-2.3-0.6-2.3-1.8c0-1.1,0.8-1.7,2.3-1.7h8.1v31.8L169.5,52
			h-1.9c-1.5,0-2.3-0.6-2.3-1.8c0-1.1,0.8-1.7,2.3-1.7h11c1.5,0,2.3,0.6,2.3,1.7c0,1.2-0.8,1.8-2.3,1.8h-4l-13.3,11.1l17.6,17.3h3.8
			c1.5,0,2.3,0.6,2.3,1.7C185,83.4,184.3,84,182.7,84z"/>
		<path class="st0" d="M191.3,67.1c1.2,8.9,8,14.8,17.1,14.8c5.3,0,11.5-1.9,14.9-4.6c0.6-0.4,0.9-0.6,1.4-0.6
			c0.8,0,1.6,0.8,1.6,1.7c0,3-10.2,7-17.9,7c-11.5,0-20.5-8.7-20.5-19.8c0-10.3,8.5-18.2,19.4-18.2c8.1,0,14.9,4.3,18,11.4
			c1.2,2.8,1.4,4.4,1.4,8.3H191.3z M207.2,50.8c-8.2,0-14.3,4.9-15.9,12.7h31.7C221.7,55.9,215.4,50.8,207.2,50.8z"/>
		<path class="st0" d="M251.3,85.3c-8,0-13.2-4.1-13.2-10.4V52h-6.3c-1.6,0-2.4-0.6-2.4-1.8c0-1.1,0.8-1.7,2.4-1.7h6.3V38.5
			c0-1.5,0.6-2.3,1.8-2.3s1.7,0.7,1.7,2.3v10.1h18.7c1.5,0,2.3,0.6,2.3,1.7c0,1.2-0.8,1.8-2.3,1.8h-18.7v22.7c0,4.3,3.7,7.1,9.5,7.1
			c4.8,0,10.8-1.4,14.1-3.4c0.7-0.4,0.9-0.5,1.4-0.5c0.8,0,1.6,0.8,1.6,1.7C268.2,82.1,258.5,85.3,251.3,85.3z"/>
	</g>
	<g>
		<path class="st1" d="M317.3,88.9h-20.5c-2.4,0-3.7-1-3.7-2.9c0-1.8,1.2-2.7,3.7-2.7h10.3V65.9h-36.8v-6.4l31-52.7h11.4v53.5h4.6
			c2.4,0,3.7,1,3.7,2.9c0,1.8-1.2,2.7-3.7,2.7h-4.6v17.4h4.6c2.4,0,3.7,1,3.7,2.7C321,87.9,319.7,88.9,317.3,88.9z M307.1,12.3h-3.3
			l-28.3,48h31.5V12.3z"/>
	</g>
</g>
</svg>
