<?xml version="1.0" encoding="utf-8"?>
<!-- Generator: Adobe Illustrator 22.0.1, SVG Export Plug-In . SVG Version: 6.00 Build 0)  -->
<svg version="1.1" id="Capa_1" xmlns="http://www.w3.org/2000/svg" xmlns:xlink="http://www.w3.org/1999/xlink" x="0px" y="0px"
	 viewBox="0 0 612 139" style="enable-background:new 0 0 612 139;" xml:space="preserve">
<style type="text/css">
	.st0{fill:#ffffff;}
</style>
<g>
	<g>
		<path class="st0" d="M238.1,48.8c1-1.9,1.8-3.6,2.7-5.3c5.1-10.2,10.2-20.4,15.3-30.6C258,9.1,261,7,265.2,7
			c4.3,0,7.4,2.1,9.2,5.9c16.4,32.8,32.8,65.7,49.2,98.5c2.4,4.9,0.2,11.1-4.3,13.3c-5.1,2.5-10.9,0.7-13.4-4.4
			c-5-9.8-9.8-19.7-14.7-29.4c-8.4-17-17-34-25.4-51c-0.1-0.2-0.3-0.5-0.5-0.8c-0.6,1.1-1.1,2.1-1.6,3.1
			c-4.7,9.3-9.2,18.6-13.9,27.8c-0.3,0.7-0.4,1.2,0,1.9c6.6,13.1,13.1,26.2,19.7,39.4c2.5,5,0.6,10.9-4.2,13.4
			c-5,2.6-10.9,0.7-13.5-4.4c-4.4-8.6-8.6-17.3-13-25.9c-0.2-0.3-0.3-0.6-0.5-1c-0.2,0.4-0.4,0.7-0.6,1.1
			c-4.3,8.6-8.6,17.3-12.9,25.9c-3.1,6.1-10.9,7.4-15.8,2.7c-3.2-3-3.9-7.9-1.9-11.9c3.8-7.7,7.7-15.3,11.4-23
			c2.7-5.5,5.5-10.8,8.1-16.3c0.2-0.4,0.3-1.2,0-1.6c-5.1-10.1-10.1-20.4-15.2-30.5c-0.1-0.2-0.2-0.4-0.4-0.7
			c-0.2,0.4-0.4,0.6-0.5,0.9c-12,24-24,48-36,72c-1.4,2.7-2.7,5.5-4.1,8.1c-2.1,4.1-6.1,6.3-10.3,5.6c-4.5-0.7-7.7-3.8-8.4-8.4
			c-0.4-2.2,0.1-4.3,1.1-6.3c5.8-11.5,11.5-23.2,17.4-34.7C180.9,55.2,191.4,34,202,12.9c2.5-4.9,7.2-7,12.3-5.4
			c2.8,0.8,4.7,2.8,6,5.3c5.8,11.4,11.4,22.9,17.2,34.3C237.5,47.6,237.8,48.1,238.1,48.8z"/>
		<path class="st0" d="M550.7,132.3c-32.8-0.4-59.7-25.8-59.5-60c0.2-34.4,28.4-58.8,59.3-58.9c34-0.1,59.4,27.6,59.5,59.7
			C610,105.4,583,132.3,550.7,132.3z M550.5,112.4c21.8,0,39.7-17.9,39.6-39.7c-0.1-19.8-15-39.3-39.6-39.6
			c-21.8-0.2-39.8,18.2-39.8,39.6C510.7,91.1,525.5,112.3,550.5,112.4z"/>
		<path class="st0" d="M436.4,71.3c0,32.5-26.5,58.8-58,59.3c-32.9,0.5-60.8-24.8-60.8-59.6c0-34.5,28-59.1,59.1-59.2
			C410.8,11.6,436.3,39.4,436.4,71.3z M416.6,71.1c-0.2-19.7-14.9-39.3-39.6-39.6c-21.8-0.2-39.6,17.8-39.8,39.6
			c-0.1,18.9,15.2,39.7,39.8,39.7C398.7,110.9,416.6,93,416.6,71.1z"/>
		<path class="st0" d="M61.6,94.1c0.9-1.9,1.8-3.5,2.6-5.2c12.6-25.3,25.3-50.7,38-76c1.9-3.9,6-6.1,9.9-5.6c4.5,0.6,7.8,3.5,8.7,8
			c0.5,2.3,0.2,4.6-0.9,6.7C111,39.9,102,57.8,93.1,75.6c-7.3,14.5-14.5,29-21.8,43.5c-0.7,1.4-1.5,2.8-2.5,4
			c-4.3,4.8-12.3,4-15.7-1.5c-1.5-2.5-2.7-5.1-4-7.7C33.9,83,18.7,52.4,3.3,21.8C0.8,16.8,3,10.5,7.5,8.3c5.2-2.5,10.9-0.6,13.5,4.6
			c13.4,26.8,26.7,53.6,40.2,80.4C61.3,93.5,61.4,93.6,61.6,94.1z"/>
		<path class="st0" d="M482.2,54.2c0,11.1,0.3,22.3-0.1,33.4c-0.6,17.2-8.1,30.7-23.1,39.6c-6.8,4-14.2,5.8-22.1,5.9
			c-5.8,0.1-10.4-4.5-10.4-10.1c-0.1-6.1,4.2-10.7,10.2-10.7c13.5,0.1,22.6-10.6,24.2-20c0.3-1.8,0.5-3.7,0.5-5.5
			c0-22.9,0-45.7,0-68.6c0-4.8,2.9-8.8,7.3-10.2c6.8-2.1,13.4,2.9,13.5,9.9c0.1,4.4,0,8.6,0,13C482.2,38.6,482.2,46.4,482.2,54.2z"
			/>
		<path class="st0" d="M126.7,66.3c0-16.4,0-32.8,0-49.1c0-4.2,1.8-7.4,5.5-9.3c6-3.3,13.6,1,14.3,7.8c0.1,0.6,0.1,1.1,0.1,1.7
			c0,32.7,0,65.4,0,98.2c0,3.6-1.3,6.6-4.2,8.6c-3.1,2.2-6.4,2.6-9.7,1c-3.5-1.6-5.5-4.4-5.8-8.3c0-0.6,0-1.2,0-1.8
			C126.7,98.7,126.7,82.5,126.7,66.3z"/>
	</g>
</g>
</svg>
