<?xml version="1.0" encoding="utf-8"?>
<!-- Generator: Adobe Illustrator 22.0.1, SVG Export Plug-In . SVG Version: 6.00 Build 0)  -->
<svg version="1.1" id="Capa_1" xmlns="http://www.w3.org/2000/svg" xmlns:xlink="http://www.w3.org/1999/xlink" x="0px" y="0px"
	 viewBox="0 0 640 360" style="enable-background:new 0 0 640 360;" xml:space="preserve">
<style type="text/css">
	.st0{fill:#AAAAAA;}
	.st1{fill:#DBDBDB;}
	.st2{fill:#FFFFFF;}
	.st3{fill:#999999;}
	.st4{fill:#7C7C7C;}
</style>
<rect x="12" y="289.8" class="st0" width="614" height="62.2"/>
<rect x="12" y="289.8" class="st0" width="87.2" height="62.2"/>
<rect x="12" y="10" class="st1" width="614" height="279.8"/>
<polygon class="st2" points="78.5,321.5 43.4,300 43.4,343 "/>
<rect x="141.2" y="316.8" class="st3" width="438.8" height="6.8"/>
<ellipse class="st4" cx="249.5" cy="321.2" rx="10.5" ry="10.2"/>
<g>
	<path class="st0" d="M350.9,60.2c6.8,8,10.2,17.5,10.2,28.5c0,7.8-2.3,15.3-7,22.6c-2.5,4.1-5.9,8.1-10.1,11.9l-14,13.2
		c-13.4,12.6-22,23.8-26,33.6c-4,9.8-5.9,22.6-5.9,38.6h31.1c0-14.1,1.7-24.7,5-31.9c3.3-7.2,10.5-16,21.7-26.4
		c15.4-14.3,25.6-25.1,30.6-32.5c5-7.4,7.6-17,7.6-28.8c0-19.5-6.9-35.6-20.7-48.1c-13.8-12.6-32.1-18.8-55-18.8
		c-24.8,0-44.2,7.3-58.4,22c-14.2,14.7-21.3,34-21.3,58.2h31.1c0.6-14.5,3-25.6,7.1-33.3c7.4-13.8,20.9-20.7,40.3-20.7
		C332.9,48.1,344.1,52.1,350.9,60.2z"/>
	<rect x="297.5" y="236.2" class="st0" width="34.7" height="34.8"/>
</g>
</svg>
