<?xml version="1.0" encoding="utf-8"?>
<!-- Generator: Adobe Illustrator 22.0.1, SVG Export Plug-In . SVG Version: 6.00 Build 0)  -->
<svg version="1.1" id="Capa_1" xmlns="http://www.w3.org/2000/svg" xmlns:xlink="http://www.w3.org/1999/xlink" x="0px" y="0px"
	 viewBox="0 0 512 512" style="enable-background:new 0 0 512 512;" xml:space="preserve">
<style type="text/css">
	.st0{fill:#F26F6F;}
</style>
<g>
	<g>
		<path class="st0" d="M448.4,13H63.6C33.9,13,9.7,37.2,9.7,66.9V267c0,4.2,3.4,7.7,7.7,7.7s7.7-3.4,7.7-7.7V66.9
			c0-21.2,17.3-38.5,38.5-38.5h384.8c21.2,0,38.5,17.3,38.5,38.5V267c0,4.2,3.4,7.7,7.7,7.7c4.2,0,7.7-3.4,7.7-7.7V66.9
			C502.3,37.2,478.1,13,448.4,13z"/>
		<path class="st0" d="M494.6,290C494.6,290,494.5,290,494.6,290l-477.1,0c0,0,0,0,0,0c-4.2,0-7.7,3.4-7.7,7.7v30.8
			c0,29.7,24.2,53.9,53.9,53.9h384.8c29.7,0,53.9-24.2,53.9-53.9v-30.8C502.3,293.5,498.8,290,494.6,290z M448.4,367H63.6
			c-21.2,0-38.5-17.3-38.5-38.5v-23.1h461.7v23.1C486.9,349.7,469.6,367,448.4,367z"/>
		<path class="st0" d="M440.7,328.5H108.5c-3.2-9-11.7-15.4-21.8-15.4c-12.7,0-23.1,10.4-23.1,23.1c0,12.7,10.4,23.1,23.1,23.1
			c10,0,18.6-6.4,21.8-15.4h332.2c4.2,0,7.7-3.4,7.7-7.7S444.9,328.5,440.7,328.5z M86.7,343.9c-4.2,0-7.7-3.5-7.7-7.7
			c0-4.2,3.5-7.7,7.7-7.7s7.7,3.5,7.7,7.7C94.4,340.5,90.9,343.9,86.7,343.9z"/>
		<path class="st0" d="M217.1,237.9c3.2,0,6.6-1,9.9-2.9l104.3-61.3c5.9-3.5,9.3-8.7,9.3-14.4c0-5.7-3.4-11-9.3-14.4L227,83.4
			c-5.9-3.5-12.2-3.9-17.1-1c-4.9,2.8-7.8,8.4-7.8,15.3v123.1c0,6.9,2.8,12.4,7.8,15.3C212.1,237.3,214.5,237.9,217.1,237.9z
			 M217.5,97.7c0-0.7,0.1-1.3,0.2-1.6c0.4,0.1,0.9,0.3,1.5,0.7L323.5,158c0.8,0.5,1.3,0.9,1.5,1.2c-0.2,0.3-0.7,0.7-1.5,1.2
			l-104.3,61.3c-0.6,0.4-1.1,0.6-1.5,0.7c-0.1-0.4-0.2-0.9-0.2-1.6V97.7z"/>
	</g>
	<g>
		<path class="st0" d="M62.6,477.3v-60.8h13.3l27.8,40.6v-40.6h12.7v60.8h-13.7l-27.3-39.6v39.6H62.6z"/>
		<path class="st0" d="M127.8,454.7c0-3.9,1.1-7.6,3.2-11.2c2.1-3.6,5.1-6.4,9-8.3c3.9-1.9,8.3-2.9,13.1-2.9
			c7.4,0,13.5,2.2,18.3,6.5c4.7,4.3,7.1,9.8,7.1,16.4c0,6.7-2.4,12.2-7.2,16.6c-4.8,4.4-10.8,6.6-18.1,6.6c-4.5,0-8.8-0.9-12.9-2.7
			c-4.1-1.8-7.2-4.5-9.3-8C128.9,464,127.8,459.7,127.8,454.7z M141.1,455.3c0,4.4,1.2,7.7,3.5,10c2.3,2.3,5.2,3.5,8.6,3.5
			c3.4,0,6.2-1.2,8.5-3.5c2.3-2.3,3.4-5.7,3.4-10.1c0-4.3-1.1-7.6-3.4-9.9c-2.3-2.3-5.1-3.5-8.5-3.5c-3.4,0-6.2,1.2-8.6,3.5
			C142.3,447.6,141.1,450.9,141.1,455.3z"/>
		<path class="st0" d="M228.5,477.3l-19.8-44h13.6l9.3,22.5l2.7,7.5c0.7-1.9,1.2-3.2,1.3-3.8c0.4-1.2,0.9-2.5,1.4-3.7l9.3-22.5h13.4
			l-19.5,44H228.5z"/>
		<path class="st0" d="M267.7,427.3v-10.8h13v10.8H267.7z M267.7,477.3v-44h13v44H267.7z"/>
		<path class="st0" d="M339.1,477.3H327v-6.5c-2,2.5-4.4,4.4-7.1,5.6c-2.7,1.2-5.5,1.8-8.3,1.8c-5.6,0-10.5-2-14.5-6.1
			c-4-4.1-6-9.8-6-17.1c0-7.5,2-13.1,5.9-17c3.9-3.9,8.9-5.8,14.8-5.8c5.5,0,10.2,2,14.2,6.1v-21.9h13V477.3z M304.4,454.3
			c0,4.7,0.7,8.1,2.2,10.2c2.1,3,5,4.6,8.8,4.6c3,0,5.5-1.1,7.6-3.4c2.1-2.3,3.1-5.7,3.1-10.2c0-5.1-1-8.7-3.1-10.9
			s-4.6-3.3-7.8-3.3c-3.1,0-5.7,1.1-7.7,3.3C305.4,446.7,304.4,450,304.4,454.3z"/>
		<path class="st0" d="M380.3,463.3l13,1.9c-1.7,4.3-4.3,7.5-7.9,9.7c-3.6,2.2-8.1,3.3-13.5,3.3c-8.5,0-14.9-2.5-19-7.5
			c-3.2-4-4.9-9.1-4.9-15.2c0-7.3,2.1-13,6.4-17.1s9.6-6.2,16.1-6.2c7.3,0,13.1,2.2,17.3,6.5c4.2,4.3,6.2,10.9,6.1,19.9h-32.6
			c0.1,3.5,1.1,6.1,3.1,8.1c2,1.9,4.5,2.9,7.5,2.9c2,0,3.7-0.5,5.1-1.5C378.6,467.1,379.6,465.5,380.3,463.3z M381.1,451.5
			c-0.1-3.4-1.1-5.9-2.9-7.7c-1.9-1.8-4.1-2.6-6.8-2.6c-2.8,0-5.2,0.9-7,2.8c-1.9,1.9-2.8,4.4-2.7,7.5H381.1z"/>
		<path class="st0" d="M401.6,454.7c0-3.9,1.1-7.6,3.2-11.2c2.1-3.6,5.1-6.4,9-8.3s8.3-2.9,13.1-2.9c7.4,0,13.5,2.2,18.3,6.5
			c4.7,4.3,7.1,9.8,7.1,16.4c0,6.7-2.4,12.2-7.2,16.6c-4.8,4.4-10.8,6.6-18.1,6.6c-4.5,0-8.8-0.9-12.9-2.7c-4.1-1.8-7.2-4.5-9.3-8
			S401.6,459.7,401.6,454.7z M414.9,455.3c0,4.4,1.2,7.7,3.5,10c2.3,2.3,5.2,3.5,8.6,3.5c3.4,0,6.2-1.2,8.5-3.5
			c2.3-2.3,3.4-5.7,3.4-10.1c0-4.3-1.1-7.6-3.4-9.9c-2.3-2.3-5.1-3.5-8.5-3.5c-3.4,0-6.2,1.2-8.6,3.5
			C416,447.6,414.9,450.9,414.9,455.3z"/>
	</g>
</g>
</svg>
