<?xml version="1.0" encoding="iso-8859-1"?>
<!-- Generator: Adobe Illustrator 19.1.0, SVG Export Plug-In . SVG Version: 6.00 Build 0)  -->
<svg version="1.1" id="Capa_1" xmlns="http://www.w3.org/2000/svg" xmlns:xlink="http://www.w3.org/1999/xlink" x="0px" y="0px"
	 viewBox="0 0 31.059 31.059" style="enable-background:new 0 0 31.059 31.059;" xml:space="preserve">
<g>
	<g>
		<path style="fill:#010002;" d="M29.959,31.059H1.1c-0.483,0-0.875-0.392-0.875-0.875v-9.735c0-0.483,0.392-0.875,0.875-0.875
			c0.482,0,0.875,0.392,0.875,0.875v8.86h27.108v-8.86c0-0.483,0.392-0.875,0.875-0.875s0.875,0.392,0.875,0.875v9.735
			C30.834,30.667,30.442,31.059,29.959,31.059z"/>
	</g>
	<g>
		<g>
			<path style="fill:#010002;" d="M15.529,23.622c-0.483,0-0.875-0.392-0.875-0.875V1.22c0-0.482,0.392-0.875,0.875-0.875
				c0.483,0,0.875,0.393,0.875,0.875v21.527C16.404,23.231,16.012,23.622,15.529,23.622z"/>
		</g>
		<g>
			<path style="fill:#010002;" d="M26.292,12.858c-0.229,0-0.457-0.089-0.629-0.267L15.529,2.12L5.395,12.591
				c-0.336,0.347-0.889,0.356-1.237,0.021c-0.347-0.336-0.355-0.89-0.02-1.237L14.9,0.254c0.33-0.339,0.928-0.339,1.258,0
				l10.763,11.12c0.336,0.348,0.326,0.901-0.021,1.237C26.73,12.776,26.511,12.858,26.292,12.858z"/>
		</g>
	</g>
</g>
<g>
</g>
<g>
</g>
<g>
</g>
<g>
</g>
<g>
</g>
<g>
</g>
<g>
</g>
<g>
</g>
<g>
</g>
<g>
</g>
<g>
</g>
<g>
</g>
<g>
</g>
<g>
</g>
<g>
</g>
</svg>
